<?xml version="1.0" encoding="utf-8"?>
<!-- Generator: Adobe Illustrator 19.0.1, SVG Export Plug-In . SVG Version: 6.00 Build 0)  -->
<svg version="1.1" id="Layer_1" xmlns="http://www.w3.org/2000/svg"  x="0px" y="0px"
	 width="485px" height="93px" viewBox="227 -30 485 93" style="enable-background:new 227 -30 485 93;" xml:space="preserve">
<style type="text/css">
	.st0{fill:#231F20;}
	.st1{fill:#666666;}
	.st2{fill:#C41230;}
	.st3{fill:url(#SVGID_1_);}
	.st4{fill:#FFFFFF;}
	.st5{fill:#C1D2E1;}
	.st6{fill:#E5D3D5;}
	.st7{fill:#005288;}
	.st8{fill:none;}
	.st9{enable-background:new    ;}
	.st10{fill:#005287;}
	.st11{fill:#C42032;}
</style>
<path class="st0" d="M438,9.5h-14.1V6.2H438V9.5z"/>
<path class="st1" d="M367.5,46.8C367.5,46.9,367.5,46.9,367.5,46.8c0,2.9,8.4,0.7,8.4,3.3v-6.5C372,43.9,368.5,44.6,367.5,46.8z"/>
<path class="st2" d="M367.5-9v-13.8v-2.9c1.7-3.2,8.9-3.2,15.4-3.2c3.6,0,37.8,0,37.8,0v16.7c0,0-17.7,0-29.5,0c-3.7,0-6.8,0-8.3,0
	C377.4-12.2,369.1-12.6,367.5-9z M367.5,30.2V36v10.9c1.6-3.6,9.9-3.2,15.4-3.2c6.4,0,37.8,0,37.8,0V26.9c0,0-17.9,0-29.5,0
	c-4.2,0-7.4,0-8.3,0C376.4,26.9,369.2,26.9,367.5,30.2z M367.5,2.2v16.7c1.6-3.6,9.9-3.2,15.4-3.2c1.7,0,4.7,0,8.3,0
	c10.1,0,23.3,0,23.3,0V-1c0,0-13.4,0-23.3,0c-4,0-7.3,0-8.3,0C376.4-1,369.2-1,367.5,2.2z"/>
<linearGradient id="SVGID_1_" gradientUnits="userSpaceOnUse" x1="367.4608" y1="25" x2="391.2048" y2="25" gradientTransform="matrix(1 0 0 -1 0 34)">
	<stop  offset="0" style="stop-color:#762123"/>
	<stop  offset="1" style="stop-color:#762123;stop-opacity:0"/>
</linearGradient>
<path class="st3" d="M391.2-28.9c-4.1,0-7.3,0-8.3,0c-6.5,0-13.7,0-15.4,3.2v2.9v69.7c1.6-3.6,9.9-3.2,15.4-3.2c1.5,0,4.6,0,8.3,0
	V-28.9z"/>
<g>
	<rect x="330.5" y="23.2" class="st4" width="37" height="21.8"/>
	<path class="st5" d="M367.5-19.2c-2.4,0.1-4.9,0.1-7,0.1c-6.4,0-30,0-30,0v44.8c0,0,26.4,0,30,0c2.4,0,4.8,0,7-0.2V-19.2z"/>
	<path class="st4" d="M337.4-14.7l0.8,2.5h2.7l-2.2,1.6l0.8,2.5l-2.1-1.6l-2.1,1.6l0.8-2.5l-2.2-1.6h2.7L337.4-14.7z M348.4-12.2
		h-2.7l2.2,1.6l-0.8,2.5l2.1-1.6l2.1,1.6l-0.8-2.5l2.2-1.6H350l-0.8-2.5L348.4-12.2z M360.1-12.2h-2.7l2.2,1.6l-0.8,2.5l2.1-1.6
		l2.1,1.6l-0.8-2.5l2.2-1.6h-2.7l-0.8-2.5L360.1-12.2z M336.6-2.2h-2.7l2.2,1.6l-0.8,2.5l2.1-1.6l2.1,1.6l-0.8-2.5l2.2-1.6h-2.7
		l-0.8-2.5L336.6-2.2z M348.4-2.2h-2.7l2.2,1.6l-0.8,2.5l2.1-1.6l2.1,1.6l-0.8-2.5l2.2-1.6H350l-0.8-2.5L348.4-2.2z M360.1-2.2h-2.7
		l2.2,1.6l-0.8,2.5l2.1-1.6l2.1,1.6l-0.8-2.5l2.2-1.6h-2.7l-0.8-2.5L360.1-2.2z M336.6,7.7h-2.7l2.2,1.6l-0.8,2.5l2.1-1.6l2.1,1.6
		l-0.8-2.5l2.2-1.6h-2.7l-0.8-2.5L336.6,7.7z M348.4,7.7h-2.7l2.2,1.6l-0.8,2.5l2.1-1.6l2.1,1.6l-0.8-2.5l2.2-1.6H350l-0.8-2.5
		L348.4,7.7z M360.1,7.7h-2.7l2.2,1.6l-0.8,2.5l2.1-1.6l2.1,1.6l-0.8-2.5l2.2-1.6h-2.7l-0.8-2.5L360.1,7.7z M336.6,17.6h-2.7
		l2.2,1.6l-0.8,2.5l2.1-1.6l2.1,1.6l-0.8-2.5l2.2-1.6h-2.7l-0.8-2.5L336.6,17.6z M348.4,17.6h-2.7l2.2,1.6l-0.8,2.5l2.1-1.6l2.1,1.6
		l-0.8-2.5l2.2-1.6H350l-0.8-2.5L348.4,17.6z M360.1,17.6h-2.7l2.2,1.6l-0.8,2.5l2.1-1.6l2.1,1.6l-0.8-2.5l2.2-1.6h-2.7l-0.8-2.5
		L360.1,17.6z"/>
	<g>
		<path class="st6" d="M367.5,46.9V36.6c-2.4,0.1-4.9,0.1-7,0.1c-6.4,0-30,0-30,0v16.7c0,0,26.4,0,30,0c6.5,0,13.7,0,15.4-3.2
			C375.9,47.5,367.5,49.7,367.5,46.9L367.5,46.9L367.5,46.9z"/>
	</g>
</g>
<g>
	<path class="st7" d="M554.7,25.5c-3.3,13.1-14.9,19.1-27.7,19.1c-7.9,0-15.7-1.7-21.8-7.1c-5.8-5.2-8.9-12.6-8.8-20.3
		c-0.1-7.3,2.8-15.2,7.8-20.4c5.5-5.7,13.8-8.4,21.5-8.4c18,0,29,11.6,29,29.4v2.9h-36.3c0,5.8,1.9,10,8.3,10c4.8,0,7.4-1.9,8.3-6.6
		L554.7,25.5z M533.6,10.2c0-5.3-1.7-9.3-7.6-9.3c-5.5,0-7.5,4.3-7.5,9.3H533.6z"/>
	<path class="st7" d="M576.2,0.7c1.8-7.5,5.7-12.8,14.1-12.2l2.9,0.2V7.6c-1.3-0.3-2.6-0.5-4-0.5c-3.4,0-6.9,0.6-8.6,3.7
		c-1.5,2.6-1.5,6.1-1.5,9.3v23.5h-20.9v-54H576V0.7H576.2z"/>
	<rect x="598" y="-25" class="st7" width="20.9" height="9.4"/>
	<rect x="598" y="-10.4" class="st7" width="20.9" height="54.1"/>
	<path class="st7" d="M625.1-9.4c0-5.3,0.3-10.3,3.9-14.7c4.2-5.1,10.7-5.9,17-5.9c5.2,0,10.4,0.7,15.6,1.4L655.7-16
		c-1.9-0.2-3.6-0.2-5-0.2c-3.8,0-5.4,2.5-4.9,7.6h8.4l4.9,13.3H646v38.9h-20.9V-9.4z"/>
	<path class="st7" d="M482.4,43.6h-22.7l-23.4-72.5h21.1l14.7,47.3l13.4-47.3H505L482.4,43.6z"/>
	<path class="st7" d="M695.5-8.6l-8.8,27.8L676.4-8.6h-19.5l18.2,47.1c0.5,1.5,1.4,3.3,1.4,4.9c0,4.2-6.3,4.1-9.2,4.1
		c-2.5,0-5.1-0.3-7.6-0.6v15c4.2,0.4,7.5,0.5,10.7,0.5c12.1,0,17.5-4.2,21.5-15.4L712-8.6H695.5z"/>
</g>
<rect x="704.1" y="34.7" class="st8" width="11.1" height="11.1"/>
<g class="st9">
	<path class="st10" d="M711,38.1c0,0.9-0.3,1.6-0.9,2.3c-0.6,0.6-1.4,0.9-2.3,0.9c-0.9,0-1.6-0.3-2.3-0.9c-0.6-0.6-0.9-1.4-0.9-2.3
		c0-0.9,0.3-1.6,0.9-2.3c0.6-0.6,1.4-0.9,2.3-0.9c0.9,0,1.6,0.3,2.3,0.9C710.7,36.4,711,37.2,711,38.1z M710.7,38.1
		c0-0.8-0.3-1.5-0.8-2c-0.6-0.6-1.2-0.8-2-0.8c-0.8,0-1.5,0.3-2,0.8c-0.6,0.6-0.8,1.2-0.8,2c0,0.8,0.3,1.5,0.8,2
		c0.6,0.6,1.2,0.8,2,0.8c0.8,0,1.5-0.3,2-0.8C710.4,39.5,710.7,38.8,710.7,38.1z M706.6,36.2h1.3c0.5,0,0.8,0.1,1,0.3
		c0.2,0.2,0.3,0.4,0.3,0.7c0,0.3-0.1,0.5-0.3,0.7c-0.2,0.1-0.4,0.2-0.7,0.3c0.1,0.1,0.2,0.1,0.3,0.2c0.1,0.1,0.1,0.2,0.3,0.3
		c0.1,0.2,0.2,0.3,0.3,0.4l0.4,0.6h-0.6l-0.3-0.6c-0.3-0.4-0.5-0.7-0.6-0.8c-0.1-0.1-0.4-0.1-0.7-0.1h-0.3v1.5h-0.4V36.2z
		 M707.1,36.6v1.2h0.4c0.5,0,0.8,0,1-0.1c0.1,0,0.2-0.1,0.3-0.2s0.1-0.2,0.1-0.3c0-0.2-0.1-0.3-0.2-0.4c-0.1-0.1-0.4-0.2-0.9-0.2
		H707.1z"/>
</g>
<g>
	<path class="st11" d="M227,10.9h8.7v4.8c3.1-3.8,6.8-5.6,11.1-5.6c2.3,0,4.2,0.5,5.9,1.4s3,2.4,4.1,4.2c1.6-1.9,3.2-3.3,5-4.2
		c1.8-0.9,3.7-1.4,5.8-1.4c2.6,0,4.8,0.5,6.6,1.6c1.8,1.1,3.2,2.6,4,4.7c0.6,1.5,1,4,1,7.4v22.7h-9.4V26.1c0-3.5-0.3-5.8-1-6.8
		c-0.9-1.3-2.2-2-4-2c-1.3,0-2.6,0.4-3.7,1.2s-2,2-2.5,3.5s-0.8,4-0.8,7.3v17h-9.4V26.9c0-3.5-0.2-5.7-0.5-6.7s-0.9-1.7-1.6-2.2
		c-0.7-0.5-1.7-0.7-2.9-0.7c-1.4,0-2.8,0.4-3.9,1.2c-1.2,0.8-2,1.9-2.5,3.4s-0.8,3.9-0.8,7.3v17.2H227V10.9z"/>
	<path class="st11" d="M284.1,10.9h10l8.5,25.2l8.3-25.2h9.7L308.1,45l-2.2,6.2c-0.8,2.1-1.6,3.7-2.4,4.7s-1.6,2-2.6,2.7
		s-2.2,1.2-3.6,1.6c-1.4,0.4-3,0.6-4.8,0.6s-3.6-0.2-5.3-0.6l-0.8-7.4c1.5,0.3,2.8,0.4,4,0.4c2.2,0,3.8-0.6,4.8-1.9s1.8-2.9,2.4-4.9
		L284.1,10.9z"/>
</g>
</svg>
